<?xml version="1.0" standalone="no"?>
<!DOCTYPE svg PUBLIC "-//W3C//DTD SVG 20010904//EN"
 "http://www.w3.org/TR/2001/REC-SVG-20010904/DTD/svg10.dtd">
<svg version="1.0" xmlns="http://www.w3.org/2000/svg"
 width="836.000000pt" height="848.000000pt" viewBox="0 0 836.000000 848.000000"
 preserveAspectRatio="xMidYMid meet">

<g transform="translate(0.000000,848.000000) scale(0.100000,-0.100000)"
fill="#000000" stroke="none">
<path d="M3781 8159 c-735 -71 -1448 -356 -2041 -818 -775 -603 -1271 -1443
-1440 -2436 -50 -292 -68 -758 -41 -1030 73 -734 343 -1421 796 -2031 260
-349 622 -691 989 -933 547 -360 1150 -569 1861 -642 181 -19 631 -16 790 5
407 53 723 133 1080 273 686 270 1302 735 1738 1310 213 282 449 696 540 951
89 245 93 542 11 797 -112 347 -387 637 -730 769 -188 72 -238 78 -720 83
l-431 5 -7 86 c-13 168 -59 384 -116 547 -49 140 -161 364 -245 489 -292 440
-709 732 -1213 852 -874 208 -1815 -184 -2326 -968 -79 -121 -188 -350 -235
-495 -129 -394 -151 -838 -60 -1233 77 -335 259 -700 482 -968 87 -104 284
-294 380 -366 337 -252 735 -409 1162 -458 139 -16 431 -15 555 1 768 99 1423
512 1804 1139 32 51 89 158 127 237 81 164 126 216 233 266 115 54 263 48 371
-15 99 -58 176 -169 197 -285 18 -97 0 -176 -75 -334 -319 -668 -813 -1173
-1467 -1500 -774 -388 -1555 -465 -2384 -236 -315 87 -678 262 -956 460 -347
249 -663 592 -879 957 -379 638 -519 1339 -412 2068 137 932 664 1719 1474
2203 114 68 365 189 490 235 196 73 444 135 672 168 57 8 191 13 370 13 297
-1 392 -10 638 -60 609 -126 1165 -454 1574 -929 226 -263 383 -518 546 -888
31 -70 71 -98 139 -98 88 0 151 86 127 174 -33 118 -187 419 -316 615 -140
214 -246 346 -416 520 -269 273 -523 459 -852 621 -451 223 -920 329 -1451
330 -647 1 -1268 -191 -1829 -565 -933 -621 -1477 -1658 -1478 -2815 0 -438
73 -823 235 -1230 178 -448 434 -837 777 -1180 567 -566 1251 -891 2078 -986
206 -24 571 -24 758 0 727 92 1404 388 1935 844 347 299 629 661 842 1081 123
243 157 363 144 513 -14 169 -83 315 -207 439 -249 250 -646 263 -926 31 -69
-57 -129 -144 -205 -297 -132 -264 -223 -398 -396 -577 -326 -337 -763 -557
-1262 -634 -153 -24 -440 -24 -603 0 -457 66 -845 256 -1157 566 -170 168
-293 337 -397 545 -150 297 -216 568 -216 890 0 342 73 656 219 933 260 496
719 853 1274 992 596 150 1259 -35 1671 -466 223 -234 384 -519 469 -835 90
-332 76 -717 -35 -1029 -186 -518 -649 -906 -1224 -1027 -110 -23 -149 -26
-306 -26 -155 0 -197 4 -306 26 -311 65 -556 195 -766 407 -120 122 -208 244
-282 395 -112 226 -154 399 -154 635 0 176 18 300 65 450 148 467 548 827
1038 935 117 26 316 31 439 11 456 -72 813 -383 966 -839 83 -247 87 -523 11
-744 -111 -327 -378 -578 -718 -677 -318 -92 -651 -31 -901 165 -144 113 -270
303 -318 484 -31 113 -31 325 0 440 99 371 414 625 776 625 261 0 465 -132
581 -375 98 -204 99 -438 5 -587 -93 -147 -258 -232 -446 -233 -92 0 -105 3
-167 32 -171 81 -259 274 -199 433 45 121 181 205 265 165 45 -22 66 -67 69
-153 3 -78 20 -111 70 -143 39 -25 111 -21 150 7 48 35 60 76 55 184 -4 82
-10 108 -36 163 -58 125 -160 205 -290 228 -78 14 -188 -7 -282 -52 -133 -65
-248 -216 -285 -372 -73 -311 130 -649 449 -746 305 -93 676 41 867 313 96
137 135 287 126 487 -21 464 -339 842 -771 918 -85 15 -239 14 -337 -4 -412
-72 -755 -389 -865 -799 -108 -405 -1 -820 290 -1125 259 -271 647 -411 1029
-371 404 41 773 261 993 591 163 243 233 501 221 809 -16 400 -173 757 -456
1041 -217 216 -468 350 -766 406 -127 24 -426 24 -549 0 -375 -75 -751 -297
-978 -579 -231 -284 -347 -578 -380 -961 -34 -393 94 -817 353 -1168 79 -107
250 -279 357 -357 547 -404 1288 -460 1919 -148 547 271 913 739 1022 1306 13
63 26 129 30 145 l7 30 359 3 c396 3 513 -5 640 -45 262 -83 474 -271 587
-521 94 -207 108 -464 37 -684 -30 -92 -183 -403 -274 -553 -525 -875 -1351
-1478 -2375 -1735 -774 -195 -1633 -122 -2389 202 -1040 445 -1828 1372 -2125
2498 -124 472 -144 1029 -56 1547 177 1031 764 1900 1663 2464 386 242 866
422 1327 498 506 84 1101 42 1615 -114 913 -277 1681 -936 2123 -1821 99 -198
142 -312 149 -392 24 -284 -231 -521 -508 -474 -100 17 -174 55 -245 126 -49
50 -68 79 -103 161 -174 402 -363 689 -635 960 -217 216 -406 355 -656 480
-256 129 -507 206 -815 252 -174 25 -584 25 -750 -1 -526 -81 -1012 -305
-1410 -647 -583 -501 -917 -1190 -965 -1985 -30 -495 69 -959 301 -1424 356
-709 980 -1240 1719 -1463 610 -184 1199 -179 1798 15 466 150 846 377 1181
703 244 237 421 479 575 785 94 187 103 225 66 285 -36 59 -119 81 -180 50
-35 -18 -74 -68 -89 -115 -15 -47 -128 -251 -204 -369 -345 -533 -904 -932
-1559 -1111 -286 -79 -575 -110 -852 -91 -501 32 -930 172 -1317 429 -767 511
-1218 1403 -1159 2296 31 479 165 894 407 1261 332 504 851 882 1429 1040 240
66 350 80 629 80 274 0 375 -11 593 -65 732 -181 1310 -698 1627 -1459 100
-239 275 -398 505 -458 101 -26 275 -24 370 6 373 115 590 469 514 838 -36
177 -201 517 -389 803 -614 933 -1539 1534 -2607 1695 -275 42 -708 57 -947
34z"/>
</g>
</svg>
